%TF.GenerationSoftware,KiCad,Pcbnew,7.0.1*%
%TF.CreationDate,2023-04-11T23:41:51+02:00*%
%TF.ProjectId,schema_cnc,73636865-6d61-45f6-936e-632e6b696361,rev?*%
%TF.SameCoordinates,Original*%
%TF.FileFunction,Copper,L2,Bot*%
%TF.FilePolarity,Positive*%
%FSLAX46Y46*%
G04 Gerber Fmt 4.6, Leading zero omitted, Abs format (unit mm)*
G04 Created by KiCad (PCBNEW 7.0.1) date 2023-04-11 23:41:51*
%MOMM*%
%LPD*%
G01*
G04 APERTURE LIST*
%TA.AperFunction,ComponentPad*%
%ADD10O,3.048000X1.524000*%
%TD*%
%TA.AperFunction,ComponentPad*%
%ADD11O,1.524000X3.048000*%
%TD*%
%TA.AperFunction,ComponentPad*%
%ADD12C,1.700000*%
%TD*%
%TA.AperFunction,ComponentPad*%
%ADD13C,1.524000*%
%TD*%
%TA.AperFunction,ComponentPad*%
%ADD14R,2.600000X2.600000*%
%TD*%
%TA.AperFunction,ComponentPad*%
%ADD15C,2.600000*%
%TD*%
%TA.AperFunction,ViaPad*%
%ADD16C,1.000000*%
%TD*%
%TA.AperFunction,Conductor*%
%ADD17C,0.500000*%
%TD*%
%TA.AperFunction,Profile*%
%ADD18C,0.050000*%
%TD*%
G04 APERTURE END LIST*
D10*
%TO.P,JP4,1*%
%TO.N,N$19*%
X87630000Y-152400000D03*
%TO.P,JP4,2*%
%TO.N,N$11*%
X87630000Y-154940000D03*
%TO.P,JP4,3*%
%TO.N,N$13*%
X87630000Y-157480000D03*
%TO.P,JP4,4*%
%TO.N,N$14*%
X87630000Y-160020000D03*
%TO.P,JP4,5*%
%TO.N,N$15*%
X87630000Y-162560000D03*
%TO.P,JP4,6*%
%TO.N,N$16*%
X87630000Y-165100000D03*
%TO.P,JP4,7*%
%TO.N,N$17*%
X87630000Y-167640000D03*
%TO.P,JP4,8*%
%TO.N,N$18*%
X87630000Y-170180000D03*
%TD*%
%TO.P,JP2,1*%
%TO.N,N$1*%
X123190000Y-170180000D03*
%TO.P,JP2,2*%
%TO.N,N$2*%
X123190000Y-167640000D03*
%TO.P,JP2,3*%
%TO.N,N$3*%
X123190000Y-165100000D03*
%TO.P,JP2,4*%
%TO.N,N$4*%
X123190000Y-162560000D03*
%TO.P,JP2,5*%
%TO.N,N$5*%
X123190000Y-160020000D03*
%TO.P,JP2,6*%
%TO.N,N$6*%
X123190000Y-157480000D03*
%TO.P,JP2,7*%
%TO.N,N$7*%
X123190000Y-154940000D03*
%TO.P,JP2,8*%
%TO.N,N$8*%
X123190000Y-152400000D03*
%TD*%
D11*
%TO.P,JP3,1*%
%TO.N,N$9*%
X114300000Y-153670000D03*
%TO.P,JP3,2*%
%TO.N,N$4*%
X111760000Y-153670000D03*
%TO.P,JP3,3*%
%TO.N,N$5*%
X109220000Y-153670000D03*
%TO.P,JP3,4*%
%TO.N,N$6*%
X106680000Y-153670000D03*
%TO.P,JP3,5*%
%TO.N,N$10*%
X104140000Y-153670000D03*
%TO.P,JP3,6*%
X101600000Y-153670000D03*
%TO.P,JP3,7*%
X99060000Y-153670000D03*
%TO.P,JP3,8*%
X96520000Y-153670000D03*
%TD*%
D12*
%TO.P,JP1,1*%
%TO.N,N/C*%
X83820000Y-177800000D03*
%TO.P,JP1,2*%
%TO.N,N$19*%
X83820000Y-175260000D03*
D13*
%TO.P,JP1,3*%
%TO.N,N$1*%
X86360000Y-177800000D03*
D12*
%TO.P,JP1,4*%
%TO.N,N$4*%
X86360000Y-175260000D03*
%TO.P,JP1,5*%
%TO.N,N$7*%
X88900000Y-177800000D03*
%TO.P,JP1,6*%
%TO.N,N$2*%
X88900000Y-175260000D03*
%TO.P,JP1,7*%
%TO.N,N$5*%
X91440000Y-177800000D03*
%TO.P,JP1,8*%
%TO.N,N$8*%
X91440000Y-175260000D03*
%TO.P,JP1,9*%
%TO.N,N$3*%
X93980000Y-177800000D03*
%TO.P,JP1,10*%
%TO.N,N$6*%
X93980000Y-175260000D03*
%TO.P,JP1,11*%
%TO.N,N/C*%
X96520000Y-177800000D03*
%TO.P,JP1,12*%
%TO.N,N$9*%
X96520000Y-175260000D03*
%TO.P,JP1,13*%
%TO.N,N/C*%
X99060000Y-177800000D03*
%TO.P,JP1,14*%
X99060000Y-175260000D03*
%TO.P,JP1,15*%
X101600000Y-177800000D03*
%TO.P,JP1,16*%
X101600000Y-175260000D03*
%TO.P,JP1,17*%
X104140000Y-177800000D03*
%TO.P,JP1,18*%
X104140000Y-175260000D03*
%TO.P,JP1,19*%
X106680000Y-177800000D03*
%TO.P,JP1,20*%
X106680000Y-175260000D03*
%TO.P,JP1,21*%
X109220000Y-177800000D03*
%TO.P,JP1,22*%
X109220000Y-175260000D03*
%TO.P,JP1,23*%
%TO.N,N$11*%
X111760000Y-177800000D03*
%TO.P,JP1,24*%
%TO.N,N/C*%
X111760000Y-175260000D03*
%TO.P,JP1,25*%
X114300000Y-177800000D03*
%TO.P,JP1,26*%
X114300000Y-175260000D03*
%TO.P,JP1,27*%
X116840000Y-177800000D03*
%TO.P,JP1,28*%
X116840000Y-175260000D03*
%TO.P,JP1,29*%
X119380000Y-177800000D03*
%TO.P,JP1,30*%
X119380000Y-175260000D03*
%TO.P,JP1,31*%
X121920000Y-177800000D03*
%TO.P,JP1,32*%
X121920000Y-175260000D03*
%TO.P,JP1,33*%
X124460000Y-177800000D03*
%TO.P,JP1,34*%
X124460000Y-175260000D03*
%TO.P,JP1,35*%
X127000000Y-177800000D03*
%TO.P,JP1,36*%
%TO.N,N$10*%
X127000000Y-175260000D03*
%TD*%
D14*
%TO.P,X5,1*%
%TO.N,N$19*%
X74930000Y-139700000D03*
D15*
%TO.P,X5,2*%
%TO.N,N$11*%
X74930000Y-144780000D03*
%TO.P,X5,3*%
%TO.N,N$13*%
X74930000Y-149860000D03*
%TO.P,X5,4*%
%TO.N,N$14*%
X74930000Y-154940000D03*
%TO.P,X5,5*%
%TO.N,N$15*%
X74930000Y-160020000D03*
%TO.P,X5,6*%
%TO.N,N$16*%
X74930000Y-165100000D03*
%TO.P,X5,7*%
%TO.N,N$17*%
X74930000Y-170180000D03*
%TO.P,X5,8*%
%TO.N,N$18*%
X74930000Y-175260000D03*
%TD*%
D14*
%TO.P,X4,1*%
%TO.N,N$9*%
X123190000Y-142545000D03*
D15*
%TO.P,X4,2*%
%TO.N,N$4*%
X118110000Y-142545000D03*
%TO.P,X4,3*%
%TO.N,N$5*%
X113030000Y-142545000D03*
%TO.P,X4,4*%
%TO.N,N$6*%
X107950000Y-142545000D03*
%TO.P,X4,5*%
%TO.N,N$10*%
X102870000Y-142545000D03*
%TO.P,X4,6*%
X97790000Y-142545000D03*
%TO.P,X4,7*%
X92710000Y-142545000D03*
%TO.P,X4,8*%
X87630000Y-142545000D03*
%TD*%
D14*
%TO.P,X3,1*%
%TO.N,N$1*%
X135585000Y-175260000D03*
D15*
%TO.P,X3,2*%
%TO.N,N$2*%
X135585000Y-170180000D03*
%TO.P,X3,3*%
%TO.N,N$3*%
X135585000Y-165100000D03*
%TO.P,X3,4*%
%TO.N,N$4*%
X135585000Y-160020000D03*
%TO.P,X3,5*%
%TO.N,N$5*%
X135585000Y-154940000D03*
%TO.P,X3,6*%
%TO.N,N$6*%
X135585000Y-149860000D03*
%TO.P,X3,7*%
%TO.N,N$7*%
X135585000Y-144780000D03*
%TO.P,X3,8*%
%TO.N,N$8*%
X135585000Y-139700000D03*
%TD*%
D16*
%TO.N,N$10*%
X112219700Y-160934100D03*
%TO.N,N$11*%
X93194700Y-171777100D03*
%TD*%
D17*
%TO.N,N$3*%
X125516500Y-165100000D02*
X128658900Y-168242400D01*
X95642000Y-179462000D02*
X93980000Y-177800000D01*
X127731900Y-179462000D02*
X95642000Y-179462000D01*
X128658900Y-168242400D02*
X128658900Y-178535000D01*
X123190000Y-165100000D02*
X125516500Y-165100000D01*
X128658900Y-178535000D02*
X127731900Y-179462000D01*
%TO.N,N$4*%
X118110000Y-144993500D02*
X118110000Y-142545000D01*
X111760000Y-153670000D02*
X111760000Y-151343500D01*
X111760000Y-151343500D02*
X118110000Y-144993500D01*
%TO.N,N$5*%
X129191500Y-161333500D02*
X129717800Y-161859800D01*
X128158400Y-180524100D02*
X94164100Y-180524100D01*
X135585000Y-154940000D02*
X129191500Y-161333500D01*
X129717800Y-178964700D02*
X128158400Y-180524100D01*
X94164100Y-180524100D02*
X91440000Y-177800000D01*
X129191500Y-161333500D02*
X126830000Y-161333500D01*
X126830000Y-161333500D02*
X125516500Y-160020000D01*
X123190000Y-160020000D02*
X125516500Y-160020000D01*
X129717800Y-161859800D02*
X129717800Y-178964700D01*
%TO.N,N$6*%
X106680000Y-162560000D02*
X106680000Y-153670000D01*
X106680000Y-143815000D02*
X106680000Y-153670000D01*
X93980000Y-175260000D02*
X106680000Y-162560000D01*
X107950000Y-142545000D02*
X106680000Y-143815000D01*
%TO.N,N$7*%
X123190000Y-154940000D02*
X125516500Y-154940000D01*
X137703300Y-146898300D02*
X135585000Y-144780000D01*
X125516500Y-154848500D02*
X125516500Y-154940000D01*
X137703300Y-176895600D02*
X137703300Y-146898300D01*
X133022300Y-181576600D02*
X137703300Y-176895600D01*
X88900000Y-177800000D02*
X92676600Y-181576600D01*
X135585000Y-144780000D02*
X125516500Y-154848500D01*
X92676600Y-181576600D02*
X133022300Y-181576600D01*
%TO.N,N$8*%
X135585000Y-139700000D02*
X129856900Y-145428100D01*
X123190000Y-152400000D02*
X125516500Y-152400000D01*
X125516500Y-149768500D02*
X125516500Y-152400000D01*
X94955500Y-142370800D02*
X96925000Y-140401300D01*
X93620400Y-173079600D02*
X93734400Y-173079600D01*
X91440000Y-175260000D02*
X93620400Y-173079600D01*
X96925000Y-140401300D02*
X124830000Y-140401300D01*
X124830000Y-140401300D02*
X129856900Y-145428100D01*
X129856900Y-145428100D02*
X125516500Y-149768500D01*
X94497200Y-172316800D02*
X94497200Y-172202800D01*
X93734400Y-173079600D02*
X94497200Y-172316800D01*
X94497200Y-172202800D02*
X94955500Y-171744500D01*
X94955500Y-171744500D02*
X94955500Y-142370800D01*
%TO.N,N$9*%
X114300000Y-156800300D02*
X96520000Y-174580300D01*
X114300000Y-153670000D02*
X114300000Y-151343500D01*
X114300000Y-153670000D02*
X114300000Y-156800300D01*
X121087500Y-144556000D02*
X121087500Y-142545000D01*
X114300000Y-151343500D02*
X121087500Y-144556000D01*
X123190000Y-142545000D02*
X121087500Y-142545000D01*
X96520000Y-174580300D02*
X96520000Y-175260000D01*
%TO.N,N$10*%
X112219700Y-162249500D02*
X123261300Y-173291100D01*
X112219700Y-160934100D02*
X112219700Y-162249500D01*
X123261300Y-173291100D02*
X125031100Y-173291100D01*
X125031100Y-173291100D02*
X127000000Y-175260000D01*
%TO.N,N$11*%
X87630000Y-154940000D02*
X89956500Y-154940000D01*
X89956500Y-168538900D02*
X93194700Y-171777100D01*
X89956500Y-154940000D02*
X89956500Y-168538900D01*
%TO.N,N$19*%
X74930000Y-139700000D02*
X74930000Y-141802500D01*
X83820000Y-175260000D02*
X83820000Y-153883500D01*
X74930000Y-141802500D02*
X85303500Y-152176000D01*
X83820000Y-153883500D02*
X85303500Y-152400000D01*
X85303500Y-152176000D02*
X85303500Y-152400000D01*
X87630000Y-152400000D02*
X85303500Y-152400000D01*
%TD*%
D18*
X67310000Y-134620000D02*
X142240000Y-134620000D01*
X142240000Y-182880000D01*
X67310000Y-182880000D01*
X67310000Y-134620000D01*
M02*
