M48
; DRILL file {KiCad (6.0.8)} date Wed Nov  2 23:38:49 2022
; FORMAT={-:-/ absolute / metric / decimal}
; #@! TF.CreationDate,2022-11-02T23:38:49+01:00
; #@! TF.GenerationSoftware,Kicad,Pcbnew,(6.0.8)
; #@! TF.FileFunction,Plated,1,2,PTH
FMAT,2
METRIC
; #@! TA.AperFunction,Plated,PTH,ViaDrill
T1C0.400
; #@! TA.AperFunction,Plated,PTH,ComponentDrill
T2C0.762
; #@! TA.AperFunction,Plated,PTH,ComponentDrill
T3C0.800
; #@! TA.AperFunction,Plated,PTH,ComponentDrill
T4C0.850
; #@! TA.AperFunction,Plated,PTH,ComponentDrill
T5C1.016
; #@! TA.AperFunction,Plated,PTH,ComponentDrill
T6C1.300
%
G90
G05
T1
X93.195Y-171.777
X112.22Y-160.934
T2
X86.36Y-177.8
T3
X83.82Y-175.26
X83.82Y-177.8
X86.36Y-175.26
X88.9Y-175.26
X88.9Y-177.8
X91.44Y-175.26
X91.44Y-177.8
X93.98Y-175.26
X93.98Y-177.8
X96.52Y-175.26
X96.52Y-177.8
X99.06Y-175.26
X99.06Y-177.8
X101.6Y-175.26
X101.6Y-177.8
X104.14Y-175.26
X104.14Y-177.8
X106.68Y-175.26
X106.68Y-177.8
X109.22Y-175.26
X109.22Y-177.8
X111.76Y-175.26
X111.76Y-177.8
X114.3Y-175.26
X114.3Y-177.8
X116.84Y-175.26
X116.84Y-177.8
X119.38Y-175.26
X119.38Y-177.8
X121.92Y-175.26
X121.92Y-177.8
X124.46Y-175.26
X124.46Y-177.8
X127.0Y-177.8
T4
X127.0Y-175.26
T5
X87.63Y-152.4
X87.63Y-154.94
X87.63Y-157.48
X87.63Y-160.02
X87.63Y-162.56
X87.63Y-165.1
X87.63Y-167.64
X87.63Y-170.18
X96.52Y-153.67
X99.06Y-153.67
X101.6Y-153.67
X104.14Y-153.67
X106.68Y-153.67
X109.22Y-153.67
X111.76Y-153.67
X114.3Y-153.67
X123.19Y-152.4
X123.19Y-154.94
X123.19Y-157.48
X123.19Y-160.02
X123.19Y-162.56
X123.19Y-165.1
X123.19Y-167.64
X123.19Y-170.18
T6
X74.93Y-139.7
X74.93Y-144.78
X74.93Y-149.86
X74.93Y-154.94
X74.93Y-160.02
X74.93Y-165.1
X74.93Y-170.18
X74.93Y-175.26
X87.63Y-142.545
X92.71Y-142.545
X97.79Y-142.545
X102.87Y-142.545
X107.95Y-142.545
X113.03Y-142.545
X118.11Y-142.545
X123.19Y-142.545
X135.585Y-139.7
X135.585Y-144.78
X135.585Y-149.86
X135.585Y-154.94
X135.585Y-160.02
X135.585Y-165.1
X135.585Y-170.18
X135.585Y-175.26
T0
M30
