%TF.GenerationSoftware,KiCad,Pcbnew,9.0.5*%
%TF.CreationDate,2025-11-06T21:16:11+01:00*%
%TF.ProjectId,telecomando,74656c65-636f-46d6-916e-646f2e6b6963,rev?*%
%TF.SameCoordinates,PX5e78920PY1360f00*%
%TF.FileFunction,Copper,L1,Top*%
%TF.FilePolarity,Positive*%
%FSLAX46Y46*%
G04 Gerber Fmt 4.6, Leading zero omitted, Abs format (unit mm)*
G04 Created by KiCad (PCBNEW 9.0.5) date 2025-11-06 21:16:11*
%MOMM*%
%LPD*%
G01*
G04 APERTURE LIST*
%TA.AperFunction,ComponentPad*%
%ADD10R,1.800000X1.800000*%
%TD*%
%TA.AperFunction,ComponentPad*%
%ADD11C,1.800000*%
%TD*%
%TA.AperFunction,ComponentPad*%
%ADD12R,1.700000X1.700000*%
%TD*%
%TA.AperFunction,ComponentPad*%
%ADD13O,1.700000X1.700000*%
%TD*%
%TA.AperFunction,ComponentPad*%
%ADD14C,1.400000*%
%TD*%
%TA.AperFunction,ComponentPad*%
%ADD15O,1.400000X1.400000*%
%TD*%
%TA.AperFunction,ComponentPad*%
%ADD16C,2.000000*%
%TD*%
%TA.AperFunction,ComponentPad*%
%ADD17R,1.600000X1.600000*%
%TD*%
%TA.AperFunction,ComponentPad*%
%ADD18O,1.600000X1.600000*%
%TD*%
%TA.AperFunction,Conductor*%
%ADD19C,0.250000*%
%TD*%
G04 APERTURE END LIST*
D10*
%TO.P,IR1,1,OUT*%
%TO.N,Net-(A1-D11)*%
X43180000Y-8890000D03*
D11*
%TO.P,IR1,2,GND*%
%TO.N,GND*%
X43180000Y-6350000D03*
%TO.P,IR1,3,VCC*%
%TO.N,VCC*%
X43180000Y-3810000D03*
%TD*%
D12*
%TO.P,J2,1,Pin_1*%
%TO.N,Net-(J2-Pin_1)*%
X10160000Y-41910000D03*
D13*
%TO.P,J2,2,Pin_2*%
%TO.N,GND*%
X10160000Y-44450000D03*
%TD*%
D10*
%TO.P,D1,1,K*%
%TO.N,GND*%
X22860000Y-5080000D03*
D11*
%TO.P,D1,2,A*%
%TO.N,Net-(D1-A)*%
X20320000Y-5080000D03*
%TD*%
D14*
%TO.P,R1,1*%
%TO.N,Net-(D1-A)*%
X15240000Y-34290000D03*
D15*
%TO.P,R1,2*%
%TO.N,Net-(A1-D3)*%
X15240000Y-41910000D03*
%TD*%
D12*
%TO.P,J1,1,Pin_1*%
%TO.N,Net-(A1-D10)*%
X3810000Y-50800000D03*
D13*
%TO.P,J1,2,Pin_2*%
%TO.N,Net-(A1-D9)*%
X6350000Y-50800000D03*
%TO.P,J1,3,Pin_3*%
%TO.N,Net-(A1-D8)*%
X8890000Y-50800000D03*
%TO.P,J1,4,Pin_4*%
%TO.N,Net-(A1-D7)*%
X11430000Y-50800000D03*
%TO.P,J1,5,Pin_5*%
%TO.N,Net-(A1-D6)*%
X13970000Y-50800000D03*
%TO.P,J1,6,Pin_6*%
%TO.N,Net-(A1-D5)*%
X16510000Y-50800000D03*
%TO.P,J1,7,Pin_7*%
%TO.N,Net-(A1-D4)*%
X19050000Y-50800000D03*
%TD*%
D14*
%TO.P,R9,1*%
%TO.N,GND*%
X33020000Y-41910000D03*
D15*
%TO.P,R9,2*%
%TO.N,Net-(D3-K)*%
X33020000Y-34290000D03*
%TD*%
D14*
%TO.P,R3,1*%
%TO.N,GND*%
X19050000Y-38100000D03*
D15*
%TO.P,R3,2*%
%TO.N,Net-(A1-A0)*%
X26670000Y-38100000D03*
%TD*%
D12*
%TO.P,J3,1,Pin_1*%
%TO.N,VCC*%
X3810000Y-44450000D03*
D13*
%TO.P,J3,2,Pin_2*%
%TO.N,Net-(J2-Pin_1)*%
X3810000Y-41910000D03*
%TD*%
D16*
%TO.P,SW_PSU1,1,1*%
%TO.N,Net-(A1-A0)*%
X25960000Y-14260000D03*
X32460000Y-14260000D03*
%TO.P,SW_PSU1,2,2*%
%TO.N,VCC*%
X25960000Y-18760000D03*
X32460000Y-18760000D03*
%TD*%
D14*
%TO.P,R8,1*%
%TO.N,GND*%
X2540000Y-34290000D03*
D15*
%TO.P,R8,2*%
%TO.N,Net-(A1-D2)*%
X10160000Y-34290000D03*
%TD*%
D17*
%TO.P,A1,1,D1/TX*%
%TO.N,unconnected-(A1-D1{slash}TX-Pad1)*%
X29210000Y-53340000D03*
D18*
%TO.P,A1,2,D0/RX*%
%TO.N,unconnected-(A1-D0{slash}RX-Pad2)*%
X29210000Y-55880000D03*
%TO.P,A1,3,~{RESET}*%
%TO.N,unconnected-(A1-~{RESET}-Pad3)*%
X29210000Y-58420000D03*
%TO.P,A1,4,GND*%
%TO.N,GND*%
X29210000Y-60960000D03*
%TO.P,A1,5,D2*%
%TO.N,Net-(A1-D2)*%
X29210000Y-63500000D03*
%TO.P,A1,6,D3*%
%TO.N,Net-(A1-D3)*%
X29210000Y-66040000D03*
%TO.P,A1,7,D4*%
%TO.N,Net-(A1-D4)*%
X29210000Y-68580000D03*
%TO.P,A1,8,D5*%
%TO.N,Net-(A1-D5)*%
X29210000Y-71120000D03*
%TO.P,A1,9,D6*%
%TO.N,Net-(A1-D6)*%
X29210000Y-73660000D03*
%TO.P,A1,10,D7*%
%TO.N,Net-(A1-D7)*%
X29210000Y-76200000D03*
%TO.P,A1,11,D8*%
%TO.N,Net-(A1-D8)*%
X29210000Y-78740000D03*
%TO.P,A1,12,D9*%
%TO.N,Net-(A1-D9)*%
X29210000Y-81280000D03*
%TO.P,A1,13,D10*%
%TO.N,Net-(A1-D10)*%
X29210000Y-83820000D03*
%TO.P,A1,14,D11*%
%TO.N,Net-(A1-D11)*%
X29210000Y-86360000D03*
%TO.P,A1,15,D12*%
%TO.N,Net-(A1-D12)*%
X29210000Y-88900000D03*
%TO.P,A1,16,D13*%
%TO.N,unconnected-(A1-D13-Pad16)*%
X44450000Y-88900000D03*
%TO.P,A1,17,3V3*%
%TO.N,unconnected-(A1-3V3-Pad17)*%
X44450000Y-86360000D03*
%TO.P,A1,18,AREF*%
%TO.N,unconnected-(A1-AREF-Pad18)*%
X44450000Y-83820000D03*
%TO.P,A1,19,A0*%
%TO.N,Net-(A1-A0)*%
X44450000Y-81280000D03*
%TO.P,A1,20,A1*%
%TO.N,Net-(A1-A1)*%
X44450000Y-78740000D03*
%TO.P,A1,21,A2*%
X44450000Y-76200000D03*
%TO.P,A1,22,A3*%
%TO.N,Net-(A1-A3)*%
X44450000Y-73660000D03*
%TO.P,A1,23,A4*%
%TO.N,Net-(A1-A4)*%
X44450000Y-71120000D03*
%TO.P,A1,24,A5*%
%TO.N,Net-(A1-A5)*%
X44450000Y-68580000D03*
%TO.P,A1,25,A6*%
%TO.N,unconnected-(A1-A6-Pad25)*%
X44450000Y-66040000D03*
%TO.P,A1,26,A7*%
%TO.N,unconnected-(A1-A7-Pad26)*%
X44450000Y-63500000D03*
%TO.P,A1,27,+5V*%
%TO.N,VCC*%
X44450000Y-60960000D03*
%TO.P,A1,28,~{RESET}*%
%TO.N,unconnected-(A1-~{RESET}-Pad28)*%
X44450000Y-58420000D03*
%TO.P,A1,29,GND*%
%TO.N,unconnected-(A1-GND-Pad29)*%
X44450000Y-55880000D03*
%TO.P,A1,30,VIN*%
%TO.N,unconnected-(A1-VIN-Pad30)*%
X44450000Y-53340000D03*
%TD*%
D16*
%TO.P,SW_VOLSU1,1,1*%
%TO.N,Net-(A1-A1)*%
X38660000Y-14260000D03*
X45160000Y-14260000D03*
%TO.P,SW_VOLSU1,2,2*%
%TO.N,VCC*%
X38660000Y-18760000D03*
X45160000Y-18760000D03*
%TD*%
D14*
%TO.P,R10,1*%
%TO.N,Net-(A1-D12)*%
X21590000Y-10160000D03*
D15*
%TO.P,R10,2*%
%TO.N,Net-(R10-Pad2)*%
X13970000Y-10160000D03*
%TD*%
D14*
%TO.P,R2,1*%
%TO.N,GND*%
X19050000Y-34290000D03*
D15*
%TO.P,R2,2*%
%TO.N,Net-(A1-A1)*%
X26670000Y-34290000D03*
%TD*%
D16*
%TO.P,SW_PGIU1,1,1*%
%TO.N,Net-(A1-D2)*%
X25960000Y-24420000D03*
X32460000Y-24420000D03*
%TO.P,SW_PGIU1,2,2*%
%TO.N,VCC*%
X25960000Y-28920000D03*
X32460000Y-28920000D03*
%TD*%
D14*
%TO.P,R7,1*%
%TO.N,GND*%
X20320000Y-30480000D03*
D15*
%TO.P,R7,2*%
%TO.N,Net-(A1-A4)*%
X20320000Y-22860000D03*
%TD*%
D16*
%TO.P,SW_TVGIU1,1,1*%
%TO.N,Net-(A1-A3)*%
X3100000Y-24420000D03*
X9600000Y-24420000D03*
%TO.P,SW_TVGIU1,2,2*%
%TO.N,VCC*%
X3100000Y-28920000D03*
X9600000Y-28920000D03*
%TD*%
%TO.P,SW_VOLGIU1,1,1*%
%TO.N,Net-(A1-A1)*%
X38660000Y-24420000D03*
X45160000Y-24420000D03*
%TO.P,SW_VOLGIU1,2,2*%
%TO.N,VCC*%
X38660000Y-28920000D03*
X45160000Y-28920000D03*
%TD*%
D10*
%TO.P,D3,1,K*%
%TO.N,Net-(D3-K)*%
X29210000Y-5080000D03*
D11*
%TO.P,D3,2,A*%
%TO.N,VCC*%
X31750000Y-5080000D03*
%TD*%
D16*
%TO.P,SW_TVSU1,1,1*%
%TO.N,Net-(A1-A4)*%
X3100000Y-14260000D03*
X9600000Y-14260000D03*
%TO.P,SW_TVSU1,2,2*%
%TO.N,VCC*%
X3100000Y-18760000D03*
X9600000Y-18760000D03*
%TD*%
%TO.P,SW_Power1,1,1*%
%TO.N,Net-(R10-Pad2)*%
X3100000Y-3810000D03*
X9600000Y-3810000D03*
%TO.P,SW_Power1,2,2*%
%TO.N,VCC*%
X3100000Y-8310000D03*
X9600000Y-8310000D03*
%TD*%
D10*
%TO.P,D2,1,K*%
%TO.N,GND*%
X43180000Y-36830000D03*
D11*
%TO.P,D2,2,A*%
%TO.N,Net-(D1-A)*%
X40640000Y-36830000D03*
%TD*%
D14*
%TO.P,R6,1*%
%TO.N,GND*%
X15240000Y-30480000D03*
D15*
%TO.P,R6,2*%
%TO.N,Net-(A1-A5)*%
X15240000Y-22860000D03*
%TD*%
D14*
%TO.P,R4,1*%
%TO.N,GND*%
X19050000Y-41910000D03*
D15*
%TO.P,R4,2*%
%TO.N,Net-(A1-A1)*%
X26670000Y-41910000D03*
%TD*%
D14*
%TO.P,R5,1*%
%TO.N,GND*%
X19050000Y-45720000D03*
D15*
%TO.P,R5,2*%
%TO.N,Net-(A1-A3)*%
X26670000Y-45720000D03*
%TD*%
D16*
%TO.P,SW_SOURCE1,1,1*%
%TO.N,Net-(A1-A5)*%
X14530000Y-14260000D03*
X21030000Y-14260000D03*
%TO.P,SW_SOURCE1,2,2*%
%TO.N,VCC*%
X14530000Y-18760000D03*
X21030000Y-18760000D03*
%TD*%
D19*
%TO.N,GND*%
X19294800Y-30480000D02*
X19294800Y-9870300D01*
X19294800Y-34045200D02*
X19294800Y-30480000D01*
X2540000Y-36462800D02*
X2540000Y-34290000D01*
X10160000Y-44290000D02*
X10160000Y-43274900D01*
X19294800Y-30480000D02*
X20320000Y-30480000D01*
X19050000Y-34290000D02*
X19050000Y-38100000D01*
X22860000Y-5080000D02*
X22860000Y-5642900D01*
X19050000Y-34290000D02*
X19294800Y-34045200D01*
X19050000Y-41910000D02*
X19050000Y-38100000D01*
X19294800Y-9870300D02*
X22860000Y-6305100D01*
X24670500Y-3832400D02*
X40662400Y-3832400D01*
X10160000Y-43274900D02*
X9352100Y-43274900D01*
X22860000Y-5642900D02*
X24670500Y-3832400D01*
X22860000Y-5642900D02*
X22860000Y-6305100D01*
X40662400Y-3832400D02*
X43180000Y-6350000D01*
X19050000Y-44290000D02*
X10160000Y-44290000D01*
X19050000Y-44290000D02*
X19050000Y-41910000D01*
X10160000Y-44450000D02*
X10160000Y-44290000D01*
X19050000Y-45720000D02*
X19050000Y-44290000D01*
X9352100Y-43274900D02*
X2540000Y-36462800D01*
%TO.N,Net-(D1-A)*%
X18412300Y-31117700D02*
X15240000Y-34290000D01*
X20320000Y-5080000D02*
X18412300Y-6987700D01*
X18412300Y-6987700D02*
X18412300Y-31117700D01*
%TO.N,Net-(A1-D11)*%
X29210000Y-85234900D02*
X29491300Y-85234900D01*
X41954900Y-72771300D02*
X41954900Y-11340200D01*
X29491300Y-85234900D02*
X41954900Y-72771300D01*
X43180000Y-8890000D02*
X43180000Y-10115100D01*
X41954900Y-11340200D02*
X43180000Y-10115100D01*
X29210000Y-86360000D02*
X29210000Y-85234900D01*
%TO.N,VCC*%
X3100000Y-18760000D02*
X1754100Y-18760000D01*
X43818000Y-27578000D02*
X45160000Y-28920000D01*
X1754100Y-27574100D02*
X1754100Y-18760000D01*
X3100000Y-28920000D02*
X1754100Y-27574100D01*
X31750000Y-5080000D02*
X31106100Y-5723900D01*
X1754100Y-9655900D02*
X3100000Y-8310000D01*
X31106100Y-5723900D02*
X31106100Y-17406100D01*
X45600500Y-29360500D02*
X45600500Y-58917500D01*
X44450000Y-60960000D02*
X44450000Y-59834900D01*
X44683100Y-59834900D02*
X44450000Y-59834900D01*
X31106100Y-17406100D02*
X32460000Y-18760000D01*
X45160000Y-18760000D02*
X43818000Y-20102000D01*
X1754100Y-18760000D02*
X1754100Y-9655900D01*
X45160000Y-28920000D02*
X45600500Y-29360500D01*
X45600500Y-58917500D02*
X44683100Y-59834900D01*
X43818000Y-20102000D02*
X43818000Y-27578000D01*
%TO.N,Net-(A1-D2)*%
X28928700Y-62374900D02*
X24598800Y-58045000D01*
X29210000Y-63500000D02*
X29210000Y-62374900D01*
X24598800Y-25781200D02*
X25960000Y-24420000D01*
X24598800Y-58045000D02*
X24598800Y-25781200D01*
X29210000Y-62374900D02*
X28928700Y-62374900D01*
%TO.N,Net-(D3-K)*%
X29210000Y-5080000D02*
X29210000Y-29454900D01*
X33020000Y-34290000D02*
X33020000Y-33264900D01*
X29210000Y-29454900D02*
X33020000Y-33264900D01*
%TO.N,Net-(A1-D12)*%
X28928700Y-87774900D02*
X29210000Y-87774900D01*
X23495100Y-82341300D02*
X28928700Y-87774900D01*
X21590000Y-10160000D02*
X23495100Y-12065100D01*
X29210000Y-88900000D02*
X29210000Y-87774900D01*
X23495100Y-12065100D02*
X23495100Y-82341300D01*
%TO.N,Net-(A1-A0)*%
X27319700Y-31427700D02*
X27319700Y-15619700D01*
X25625800Y-36030700D02*
X25625800Y-33121600D01*
X25625800Y-33121600D02*
X27319700Y-31427700D01*
X26670000Y-37074900D02*
X25625800Y-36030700D01*
X27319700Y-15619700D02*
X25960000Y-14260000D01*
X26670000Y-38100000D02*
X26670000Y-37074900D01*
%TO.N,Net-(A1-A1)*%
X33461300Y-35339300D02*
X28744400Y-35339300D01*
X34507700Y-28572300D02*
X34507700Y-34292900D01*
X44450000Y-75074900D02*
X44731300Y-75074900D01*
X44450000Y-78740000D02*
X44450000Y-76200000D01*
X38660000Y-14260000D02*
X40037200Y-15637200D01*
X26670000Y-34290000D02*
X27695100Y-34290000D01*
X44731300Y-75074900D02*
X46486300Y-73319900D01*
X44450000Y-76200000D02*
X44450000Y-75074900D01*
X40037200Y-23042800D02*
X38660000Y-24420000D01*
X46486300Y-25746300D02*
X45160000Y-24420000D01*
X26670000Y-41910000D02*
X26670000Y-40884900D01*
X28744400Y-35339300D02*
X27695100Y-34290000D01*
X34507700Y-34292900D02*
X33461300Y-35339300D01*
X38660000Y-24420000D02*
X34507700Y-28572300D01*
X28744400Y-38810500D02*
X28744400Y-35339300D01*
X40037200Y-15637200D02*
X40037200Y-23042800D01*
X26670000Y-40884900D02*
X28744400Y-38810500D01*
X46486300Y-73319900D02*
X46486300Y-25746300D01*
%TO.N,Net-(A1-A5)*%
X15871400Y-21203500D02*
X15871400Y-15601400D01*
X15871400Y-15601400D02*
X14530000Y-14260000D01*
X15240000Y-22860000D02*
X15240000Y-21834900D01*
X15240000Y-21834900D02*
X15871400Y-21203500D01*
%TD*%
M02*
