M48
; DRILL file {KiCad 7.0.9} date Sun Mar 24 23:13:50 2024
; FORMAT={-:-/ absolute / metric / decimal}
; #@! TF.CreationDate,2024-03-24T23:13:50+01:00
; #@! TF.GenerationSoftware,Kicad,Pcbnew,7.0.9
; #@! TF.FileFunction,Plated,1,2,PTH
FMAT,2
METRIC
; #@! TA.AperFunction,Plated,PTH,ComponentDrill
T1C0.700
; #@! TA.AperFunction,Plated,PTH,ComponentDrill
T2C0.800
; #@! TA.AperFunction,Plated,PTH,ComponentDrill
T3C0.900
; #@! TA.AperFunction,Plated,PTH,ComponentDrill
T4C1.000
; #@! TA.AperFunction,Plated,PTH,ComponentDrill
T5C1.100
%
G90
G05
T1
X101.6Y-54.61
X109.22Y-54.61
X113.03Y-30.48
X114.3Y-43.18
X114.3Y-50.8
X114.3Y-54.61
X114.3Y-62.23
X118.11Y-54.61
X118.11Y-58.42
X118.11Y-62.23
X118.11Y-66.04
X119.38Y-43.18
X119.38Y-50.8
X120.65Y-30.48
X125.73Y-54.61
X125.73Y-58.42
X125.73Y-62.23
X125.73Y-66.04
X132.08Y-54.61
X132.08Y-62.23
T2
X142.24Y-24.13
X142.24Y-26.67
X142.24Y-29.21
T3
X119.38Y-25.4
X121.92Y-25.4
X128.27Y-25.4
X130.81Y-25.4
X139.7Y-57.15
X142.24Y-57.15
T4
X102.87Y-62.23
X102.87Y-64.77
X102.87Y-71.12
X105.41Y-71.12
X107.95Y-71.12
X109.22Y-62.23
X109.22Y-64.77
X110.49Y-71.12
X113.03Y-71.12
X115.57Y-71.12
X118.11Y-71.12
X128.27Y-73.66
X128.27Y-76.2
X128.27Y-78.74
X128.27Y-81.28
X128.27Y-83.82
X128.27Y-86.36
X128.27Y-88.9
X128.27Y-91.44
X128.27Y-93.98
X128.27Y-96.52
X128.27Y-99.06
X128.27Y-101.6
X128.27Y-104.14
X128.27Y-106.68
X128.27Y-109.22
X143.51Y-73.66
X143.51Y-76.2
X143.51Y-78.74
X143.51Y-81.28
X143.51Y-83.82
X143.51Y-86.36
X143.51Y-88.9
X143.51Y-91.44
X143.51Y-93.98
X143.51Y-96.52
X143.51Y-99.06
X143.51Y-101.6
X143.51Y-104.14
X143.51Y-106.68
X143.51Y-109.22
T5
X102.16Y-24.13
X102.16Y-28.63
X102.16Y-34.58
X102.16Y-39.08
X102.16Y-44.74
X102.16Y-49.24
X108.66Y-24.13
X108.66Y-28.63
X108.66Y-34.58
X108.66Y-39.08
X108.66Y-44.74
X108.66Y-49.24
X113.59Y-34.58
X113.59Y-39.08
X120.09Y-34.58
X120.09Y-39.08
X125.02Y-34.58
X125.02Y-39.08
X125.02Y-44.74
X125.02Y-49.24
X131.52Y-34.58
X131.52Y-39.08
X131.52Y-44.74
X131.52Y-49.24
X137.72Y-34.58
X137.72Y-39.08
X137.72Y-44.74
X137.72Y-49.24
X144.22Y-34.58
X144.22Y-39.08
X144.22Y-44.74
X144.22Y-49.24
T0
M30
