%TF.GenerationSoftware,KiCad,Pcbnew,9.0.5*%
%TF.CreationDate,2025-11-06T21:16:11+01:00*%
%TF.ProjectId,telecomando,74656c65-636f-46d6-916e-646f2e6b6963,rev?*%
%TF.SameCoordinates,PX5e78920PY1360f00*%
%TF.FileFunction,Copper,L2,Bot*%
%TF.FilePolarity,Positive*%
%FSLAX46Y46*%
G04 Gerber Fmt 4.6, Leading zero omitted, Abs format (unit mm)*
G04 Created by KiCad (PCBNEW 9.0.5) date 2025-11-06 21:16:11*
%MOMM*%
%LPD*%
G01*
G04 APERTURE LIST*
%TA.AperFunction,ComponentPad*%
%ADD10R,1.800000X1.800000*%
%TD*%
%TA.AperFunction,ComponentPad*%
%ADD11C,1.800000*%
%TD*%
%TA.AperFunction,ComponentPad*%
%ADD12R,1.700000X1.700000*%
%TD*%
%TA.AperFunction,ComponentPad*%
%ADD13O,1.700000X1.700000*%
%TD*%
%TA.AperFunction,ComponentPad*%
%ADD14C,1.400000*%
%TD*%
%TA.AperFunction,ComponentPad*%
%ADD15O,1.400000X1.400000*%
%TD*%
%TA.AperFunction,ComponentPad*%
%ADD16C,2.000000*%
%TD*%
%TA.AperFunction,ComponentPad*%
%ADD17R,1.600000X1.600000*%
%TD*%
%TA.AperFunction,ComponentPad*%
%ADD18O,1.600000X1.600000*%
%TD*%
%TA.AperFunction,Conductor*%
%ADD19C,0.250000*%
%TD*%
G04 APERTURE END LIST*
D10*
%TO.P,IR1,1,OUT*%
%TO.N,Net-(A1-D11)*%
X43180000Y-8890000D03*
D11*
%TO.P,IR1,2,GND*%
%TO.N,GND*%
X43180000Y-6350000D03*
%TO.P,IR1,3,VCC*%
%TO.N,VCC*%
X43180000Y-3810000D03*
%TD*%
D12*
%TO.P,J2,1,Pin_1*%
%TO.N,Net-(J2-Pin_1)*%
X10160000Y-41910000D03*
D13*
%TO.P,J2,2,Pin_2*%
%TO.N,GND*%
X10160000Y-44450000D03*
%TD*%
D10*
%TO.P,D1,1,K*%
%TO.N,GND*%
X22860000Y-5080000D03*
D11*
%TO.P,D1,2,A*%
%TO.N,Net-(D1-A)*%
X20320000Y-5080000D03*
%TD*%
D14*
%TO.P,R1,1*%
%TO.N,Net-(D1-A)*%
X15240000Y-34290000D03*
D15*
%TO.P,R1,2*%
%TO.N,Net-(A1-D3)*%
X15240000Y-41910000D03*
%TD*%
D12*
%TO.P,J1,1,Pin_1*%
%TO.N,Net-(A1-D10)*%
X3810000Y-50800000D03*
D13*
%TO.P,J1,2,Pin_2*%
%TO.N,Net-(A1-D9)*%
X6350000Y-50800000D03*
%TO.P,J1,3,Pin_3*%
%TO.N,Net-(A1-D8)*%
X8890000Y-50800000D03*
%TO.P,J1,4,Pin_4*%
%TO.N,Net-(A1-D7)*%
X11430000Y-50800000D03*
%TO.P,J1,5,Pin_5*%
%TO.N,Net-(A1-D6)*%
X13970000Y-50800000D03*
%TO.P,J1,6,Pin_6*%
%TO.N,Net-(A1-D5)*%
X16510000Y-50800000D03*
%TO.P,J1,7,Pin_7*%
%TO.N,Net-(A1-D4)*%
X19050000Y-50800000D03*
%TD*%
D14*
%TO.P,R9,1*%
%TO.N,GND*%
X33020000Y-41910000D03*
D15*
%TO.P,R9,2*%
%TO.N,Net-(D3-K)*%
X33020000Y-34290000D03*
%TD*%
D14*
%TO.P,R3,1*%
%TO.N,GND*%
X19050000Y-38100000D03*
D15*
%TO.P,R3,2*%
%TO.N,Net-(A1-A0)*%
X26670000Y-38100000D03*
%TD*%
D12*
%TO.P,J3,1,Pin_1*%
%TO.N,VCC*%
X3810000Y-44450000D03*
D13*
%TO.P,J3,2,Pin_2*%
%TO.N,Net-(J2-Pin_1)*%
X3810000Y-41910000D03*
%TD*%
D16*
%TO.P,SW_PSU1,1,1*%
%TO.N,Net-(A1-A0)*%
X25960000Y-14260000D03*
X32460000Y-14260000D03*
%TO.P,SW_PSU1,2,2*%
%TO.N,VCC*%
X25960000Y-18760000D03*
X32460000Y-18760000D03*
%TD*%
D14*
%TO.P,R8,1*%
%TO.N,GND*%
X2540000Y-34290000D03*
D15*
%TO.P,R8,2*%
%TO.N,Net-(A1-D2)*%
X10160000Y-34290000D03*
%TD*%
D17*
%TO.P,A1,1,D1/TX*%
%TO.N,unconnected-(A1-D1{slash}TX-Pad1)*%
X29210000Y-53340000D03*
D18*
%TO.P,A1,2,D0/RX*%
%TO.N,unconnected-(A1-D0{slash}RX-Pad2)*%
X29210000Y-55880000D03*
%TO.P,A1,3,~{RESET}*%
%TO.N,unconnected-(A1-~{RESET}-Pad3)*%
X29210000Y-58420000D03*
%TO.P,A1,4,GND*%
%TO.N,GND*%
X29210000Y-60960000D03*
%TO.P,A1,5,D2*%
%TO.N,Net-(A1-D2)*%
X29210000Y-63500000D03*
%TO.P,A1,6,D3*%
%TO.N,Net-(A1-D3)*%
X29210000Y-66040000D03*
%TO.P,A1,7,D4*%
%TO.N,Net-(A1-D4)*%
X29210000Y-68580000D03*
%TO.P,A1,8,D5*%
%TO.N,Net-(A1-D5)*%
X29210000Y-71120000D03*
%TO.P,A1,9,D6*%
%TO.N,Net-(A1-D6)*%
X29210000Y-73660000D03*
%TO.P,A1,10,D7*%
%TO.N,Net-(A1-D7)*%
X29210000Y-76200000D03*
%TO.P,A1,11,D8*%
%TO.N,Net-(A1-D8)*%
X29210000Y-78740000D03*
%TO.P,A1,12,D9*%
%TO.N,Net-(A1-D9)*%
X29210000Y-81280000D03*
%TO.P,A1,13,D10*%
%TO.N,Net-(A1-D10)*%
X29210000Y-83820000D03*
%TO.P,A1,14,D11*%
%TO.N,Net-(A1-D11)*%
X29210000Y-86360000D03*
%TO.P,A1,15,D12*%
%TO.N,Net-(A1-D12)*%
X29210000Y-88900000D03*
%TO.P,A1,16,D13*%
%TO.N,unconnected-(A1-D13-Pad16)*%
X44450000Y-88900000D03*
%TO.P,A1,17,3V3*%
%TO.N,unconnected-(A1-3V3-Pad17)*%
X44450000Y-86360000D03*
%TO.P,A1,18,AREF*%
%TO.N,unconnected-(A1-AREF-Pad18)*%
X44450000Y-83820000D03*
%TO.P,A1,19,A0*%
%TO.N,Net-(A1-A0)*%
X44450000Y-81280000D03*
%TO.P,A1,20,A1*%
%TO.N,Net-(A1-A1)*%
X44450000Y-78740000D03*
%TO.P,A1,21,A2*%
X44450000Y-76200000D03*
%TO.P,A1,22,A3*%
%TO.N,Net-(A1-A3)*%
X44450000Y-73660000D03*
%TO.P,A1,23,A4*%
%TO.N,Net-(A1-A4)*%
X44450000Y-71120000D03*
%TO.P,A1,24,A5*%
%TO.N,Net-(A1-A5)*%
X44450000Y-68580000D03*
%TO.P,A1,25,A6*%
%TO.N,unconnected-(A1-A6-Pad25)*%
X44450000Y-66040000D03*
%TO.P,A1,26,A7*%
%TO.N,unconnected-(A1-A7-Pad26)*%
X44450000Y-63500000D03*
%TO.P,A1,27,+5V*%
%TO.N,VCC*%
X44450000Y-60960000D03*
%TO.P,A1,28,~{RESET}*%
%TO.N,unconnected-(A1-~{RESET}-Pad28)*%
X44450000Y-58420000D03*
%TO.P,A1,29,GND*%
%TO.N,unconnected-(A1-GND-Pad29)*%
X44450000Y-55880000D03*
%TO.P,A1,30,VIN*%
%TO.N,unconnected-(A1-VIN-Pad30)*%
X44450000Y-53340000D03*
%TD*%
D16*
%TO.P,SW_VOLSU1,1,1*%
%TO.N,Net-(A1-A1)*%
X38660000Y-14260000D03*
X45160000Y-14260000D03*
%TO.P,SW_VOLSU1,2,2*%
%TO.N,VCC*%
X38660000Y-18760000D03*
X45160000Y-18760000D03*
%TD*%
D14*
%TO.P,R10,1*%
%TO.N,Net-(A1-D12)*%
X21590000Y-10160000D03*
D15*
%TO.P,R10,2*%
%TO.N,Net-(R10-Pad2)*%
X13970000Y-10160000D03*
%TD*%
D14*
%TO.P,R2,1*%
%TO.N,GND*%
X19050000Y-34290000D03*
D15*
%TO.P,R2,2*%
%TO.N,Net-(A1-A1)*%
X26670000Y-34290000D03*
%TD*%
D16*
%TO.P,SW_PGIU1,1,1*%
%TO.N,Net-(A1-D2)*%
X25960000Y-24420000D03*
X32460000Y-24420000D03*
%TO.P,SW_PGIU1,2,2*%
%TO.N,VCC*%
X25960000Y-28920000D03*
X32460000Y-28920000D03*
%TD*%
D14*
%TO.P,R7,1*%
%TO.N,GND*%
X20320000Y-30480000D03*
D15*
%TO.P,R7,2*%
%TO.N,Net-(A1-A4)*%
X20320000Y-22860000D03*
%TD*%
D16*
%TO.P,SW_TVGIU1,1,1*%
%TO.N,Net-(A1-A3)*%
X3100000Y-24420000D03*
X9600000Y-24420000D03*
%TO.P,SW_TVGIU1,2,2*%
%TO.N,VCC*%
X3100000Y-28920000D03*
X9600000Y-28920000D03*
%TD*%
%TO.P,SW_VOLGIU1,1,1*%
%TO.N,Net-(A1-A1)*%
X38660000Y-24420000D03*
X45160000Y-24420000D03*
%TO.P,SW_VOLGIU1,2,2*%
%TO.N,VCC*%
X38660000Y-28920000D03*
X45160000Y-28920000D03*
%TD*%
D10*
%TO.P,D3,1,K*%
%TO.N,Net-(D3-K)*%
X29210000Y-5080000D03*
D11*
%TO.P,D3,2,A*%
%TO.N,VCC*%
X31750000Y-5080000D03*
%TD*%
D16*
%TO.P,SW_TVSU1,1,1*%
%TO.N,Net-(A1-A4)*%
X3100000Y-14260000D03*
X9600000Y-14260000D03*
%TO.P,SW_TVSU1,2,2*%
%TO.N,VCC*%
X3100000Y-18760000D03*
X9600000Y-18760000D03*
%TD*%
%TO.P,SW_Power1,1,1*%
%TO.N,Net-(R10-Pad2)*%
X3100000Y-3810000D03*
X9600000Y-3810000D03*
%TO.P,SW_Power1,2,2*%
%TO.N,VCC*%
X3100000Y-8310000D03*
X9600000Y-8310000D03*
%TD*%
D10*
%TO.P,D2,1,K*%
%TO.N,GND*%
X43180000Y-36830000D03*
D11*
%TO.P,D2,2,A*%
%TO.N,Net-(D1-A)*%
X40640000Y-36830000D03*
%TD*%
D14*
%TO.P,R6,1*%
%TO.N,GND*%
X15240000Y-30480000D03*
D15*
%TO.P,R6,2*%
%TO.N,Net-(A1-A5)*%
X15240000Y-22860000D03*
%TD*%
D14*
%TO.P,R4,1*%
%TO.N,GND*%
X19050000Y-41910000D03*
D15*
%TO.P,R4,2*%
%TO.N,Net-(A1-A1)*%
X26670000Y-41910000D03*
%TD*%
D14*
%TO.P,R5,1*%
%TO.N,GND*%
X19050000Y-45720000D03*
D15*
%TO.P,R5,2*%
%TO.N,Net-(A1-A3)*%
X26670000Y-45720000D03*
%TD*%
D16*
%TO.P,SW_SOURCE1,1,1*%
%TO.N,Net-(A1-A5)*%
X14530000Y-14260000D03*
X21030000Y-14260000D03*
%TO.P,SW_SOURCE1,2,2*%
%TO.N,VCC*%
X14530000Y-18760000D03*
X21030000Y-18760000D03*
%TD*%
D19*
%TO.N,GND*%
X30208400Y-37058400D02*
X33020000Y-39870000D01*
X43180000Y-36830000D02*
X41954900Y-36830000D01*
X28084900Y-58973400D02*
X28084900Y-54754900D01*
X19050000Y-38100000D02*
X20091600Y-37058400D01*
X29210000Y-60960000D02*
X29210000Y-59834900D01*
X39374300Y-39870000D02*
X41954900Y-37289400D01*
X41954900Y-37289400D02*
X41954900Y-36830000D01*
X29210000Y-59834900D02*
X28946400Y-59834900D01*
X28946400Y-59834900D02*
X28084900Y-58973400D01*
X28084900Y-54754900D02*
X19050000Y-45720000D01*
X33020000Y-39870000D02*
X33020000Y-41910000D01*
X20320000Y-30480000D02*
X15240000Y-30480000D01*
X20091600Y-37058400D02*
X30208400Y-37058400D01*
X33020000Y-39870000D02*
X39374300Y-39870000D01*
%TO.N,Net-(D1-A)*%
X40640000Y-36830000D02*
X39841000Y-36031000D01*
X39841000Y-36031000D02*
X16981000Y-36031000D01*
X16981000Y-36031000D02*
X15240000Y-34290000D01*
%TO.N,VCC*%
X32460000Y-28920000D02*
X25960000Y-28920000D01*
X3602500Y-28920000D02*
X3100000Y-28920000D01*
X38660000Y-28920000D02*
X32460000Y-28920000D01*
X31750000Y-5080000D02*
X41910000Y-5080000D01*
X3602500Y-39686000D02*
X2634900Y-40653600D01*
X14530000Y-18760000D02*
X9600000Y-18760000D01*
X2634900Y-40653600D02*
X2634900Y-42467100D01*
X45160000Y-28920000D02*
X38660000Y-28920000D01*
X45160000Y-18760000D02*
X38660000Y-18760000D01*
X9600000Y-28920000D02*
X3602500Y-28920000D01*
X2634900Y-42467100D02*
X3442700Y-43274900D01*
X3602500Y-28920000D02*
X3602500Y-39686000D01*
X41910000Y-5080000D02*
X43180000Y-3810000D01*
X25960000Y-18760000D02*
X21030000Y-18760000D01*
X9600000Y-8310000D02*
X3100000Y-8310000D01*
X21030000Y-18760000D02*
X14530000Y-18760000D01*
X38660000Y-18760000D02*
X32460000Y-18760000D01*
X32460000Y-18760000D02*
X25960000Y-18760000D01*
X9600000Y-18760000D02*
X3100000Y-18760000D01*
X3810000Y-44450000D02*
X3810000Y-43274900D01*
X3442700Y-43274900D02*
X3810000Y-43274900D01*
%TO.N,Net-(A1-D3)*%
X27634800Y-63621100D02*
X28928600Y-64914900D01*
X28928600Y-64914900D02*
X29210000Y-64914900D01*
X29210000Y-66040000D02*
X29210000Y-64914900D01*
X27634800Y-56964700D02*
X27634800Y-63621100D01*
X15240000Y-44569900D02*
X27634800Y-56964700D01*
X15240000Y-41910000D02*
X15240000Y-44569900D01*
%TO.N,Net-(A1-D2)*%
X32460000Y-24420000D02*
X25960000Y-24420000D01*
X10160000Y-34290000D02*
X10160000Y-33264900D01*
X19585900Y-24420000D02*
X16984000Y-21818100D01*
X13754100Y-29670800D02*
X10160000Y-33264900D01*
X16984000Y-21818100D02*
X14759800Y-21818100D01*
X25960000Y-24420000D02*
X19585900Y-24420000D01*
X14759800Y-21818100D02*
X13754100Y-22823800D01*
X13754100Y-22823800D02*
X13754100Y-29670800D01*
%TO.N,Net-(A1-D4)*%
X19050000Y-50800000D02*
X20225100Y-50800000D01*
X28928700Y-67454900D02*
X29210000Y-67454900D01*
X29210000Y-68580000D02*
X29210000Y-67454900D01*
X20225100Y-50800000D02*
X27184700Y-57759600D01*
X27184700Y-65710900D02*
X28928700Y-67454900D01*
X27184700Y-57759600D02*
X27184700Y-65710900D01*
%TO.N,Net-(A1-D5)*%
X28928700Y-69994900D02*
X29210000Y-69994900D01*
X16510000Y-50800000D02*
X17685100Y-50800000D01*
X17685100Y-51165300D02*
X18981500Y-52461700D01*
X18981500Y-52461700D02*
X20572500Y-52461700D01*
X29210000Y-71120000D02*
X29210000Y-69994900D01*
X26734600Y-67800800D02*
X28928700Y-69994900D01*
X17685100Y-50800000D02*
X17685100Y-51165300D01*
X26734600Y-58623800D02*
X26734600Y-67800800D01*
X20572500Y-52461700D02*
X26734600Y-58623800D01*
%TO.N,Net-(A1-D6)*%
X13970000Y-50800000D02*
X15145100Y-50800000D01*
X20553900Y-53079900D02*
X26284400Y-58810400D01*
X26284400Y-58810400D02*
X26284400Y-69842500D01*
X15145100Y-50800000D02*
X15145100Y-51167200D01*
X15145100Y-51167200D02*
X17057800Y-53079900D01*
X28976800Y-72534900D02*
X29210000Y-72534900D01*
X29210000Y-73660000D02*
X29210000Y-72534900D01*
X17057800Y-53079900D02*
X20553900Y-53079900D01*
X26284400Y-69842500D02*
X28976800Y-72534900D01*
%TO.N,Net-(A1-D7)*%
X28928700Y-75074900D02*
X29210000Y-75074900D01*
X25823700Y-58986300D02*
X25823700Y-71969900D01*
X12605100Y-51165300D02*
X15049500Y-53609700D01*
X25823700Y-71969900D02*
X28928700Y-75074900D01*
X11430000Y-50800000D02*
X12605100Y-50800000D01*
X29210000Y-76200000D02*
X29210000Y-75074900D01*
X12605100Y-50800000D02*
X12605100Y-51165300D01*
X20447100Y-53609700D02*
X25823700Y-58986300D01*
X15049500Y-53609700D02*
X20447100Y-53609700D01*
%TO.N,Net-(A1-D8)*%
X28928600Y-77614900D02*
X29210000Y-77614900D01*
X25373600Y-74059900D02*
X28928600Y-77614900D01*
X13330000Y-54430200D02*
X20631000Y-54430200D01*
X29210000Y-78740000D02*
X29210000Y-77614900D01*
X10065100Y-50800000D02*
X10065100Y-51165300D01*
X25373600Y-59172800D02*
X25373600Y-74059900D01*
X20631000Y-54430200D02*
X25373600Y-59172800D01*
X8890000Y-50800000D02*
X10065100Y-50800000D01*
X10065100Y-51165300D02*
X13330000Y-54430200D01*
%TO.N,Net-(A1-D9)*%
X24923500Y-76149800D02*
X28928600Y-80154900D01*
X24923500Y-59359300D02*
X24923500Y-76149800D01*
X28928600Y-80154900D02*
X29210000Y-80154900D01*
X29210000Y-81280000D02*
X29210000Y-80154900D01*
X7525100Y-51165300D02*
X12037300Y-55677500D01*
X6350000Y-50800000D02*
X7525100Y-50800000D01*
X7525100Y-50800000D02*
X7525100Y-51165300D01*
X21241700Y-55677500D02*
X24923500Y-59359300D01*
X12037300Y-55677500D02*
X21241700Y-55677500D01*
%TO.N,Net-(A1-D10)*%
X4985100Y-50800000D02*
X4985100Y-51167300D01*
X4985100Y-51167300D02*
X11244600Y-57426800D01*
X28976800Y-82694900D02*
X29210000Y-82694900D01*
X24473400Y-59545800D02*
X24473400Y-78191500D01*
X29210000Y-83820000D02*
X29210000Y-82694900D01*
X22354400Y-57426800D02*
X24473400Y-59545800D01*
X11244600Y-57426800D02*
X22354400Y-57426800D01*
X3810000Y-50800000D02*
X4985100Y-50800000D01*
X24473400Y-78191500D02*
X28976800Y-82694900D01*
%TO.N,Net-(A1-A0)*%
X44774800Y-64770000D02*
X44058600Y-64770000D01*
X44058600Y-64770000D02*
X43324900Y-64036300D01*
X45589000Y-65584200D02*
X44774800Y-64770000D01*
X45589000Y-79297200D02*
X45589000Y-65584200D01*
X43324900Y-64036300D02*
X43324900Y-55780000D01*
X26670000Y-38100000D02*
X26670000Y-39125100D01*
X43324900Y-55780000D02*
X26670000Y-39125100D01*
X44731300Y-80154900D02*
X45589000Y-79297200D01*
X44450000Y-80154900D02*
X44731300Y-80154900D01*
X32460000Y-14260000D02*
X25960000Y-14260000D01*
X44450000Y-81280000D02*
X44450000Y-80154900D01*
%TO.N,Net-(A1-A1)*%
X45160000Y-24420000D02*
X38660000Y-24420000D01*
X45160000Y-14260000D02*
X38660000Y-14260000D01*
%TO.N,Net-(A1-A3)*%
X8667400Y-32353700D02*
X8667400Y-34886700D01*
X44168700Y-72534900D02*
X32316400Y-60682600D01*
X26670000Y-45720000D02*
X25644900Y-45720000D01*
X26670000Y-45720000D02*
X26670000Y-46745100D01*
X9600000Y-24420000D02*
X10925100Y-25745100D01*
X8667400Y-34886700D02*
X14169300Y-40388600D01*
X3100000Y-24420000D02*
X9600000Y-24420000D01*
X32316400Y-52391500D02*
X26670000Y-46745100D01*
X10925100Y-30096000D02*
X8667400Y-32353700D01*
X20313500Y-40388600D02*
X25644900Y-45720000D01*
X14169300Y-40388600D02*
X20313500Y-40388600D01*
X44450000Y-72534900D02*
X44168700Y-72534900D01*
X32316400Y-60682600D02*
X32316400Y-52391500D01*
X10925100Y-25745100D02*
X10925100Y-30096000D01*
X44450000Y-73660000D02*
X44450000Y-72534900D01*
%TO.N,Net-(A1-A4)*%
X44216800Y-69994900D02*
X44450000Y-69994900D01*
X9132100Y-33167300D02*
X9132100Y-34714800D01*
X12956200Y-21342400D02*
X11383000Y-22915600D01*
X1754100Y-19346800D02*
X1754100Y-15605900D01*
X11383000Y-22915600D02*
X11383000Y-30916400D01*
X11383000Y-22915600D02*
X5322900Y-22915600D01*
X20320000Y-22860000D02*
X19294900Y-22860000D01*
X17777300Y-21342400D02*
X12956200Y-21342400D01*
X3100000Y-14260000D02*
X9600000Y-14260000D01*
X19294900Y-22860000D02*
X17777300Y-21342400D01*
X14355700Y-39938400D02*
X22339300Y-39938400D01*
X22339300Y-39938400D02*
X42023100Y-59622200D01*
X5322900Y-22915600D02*
X1754100Y-19346800D01*
X42023100Y-67801200D02*
X44216800Y-69994900D01*
X11383000Y-30916400D02*
X9132100Y-33167300D01*
X44450000Y-71120000D02*
X44450000Y-69994900D01*
X42023100Y-59622200D02*
X42023100Y-67801200D01*
X9132100Y-34714800D02*
X14355700Y-39938400D01*
X1754100Y-15605900D02*
X3100000Y-14260000D01*
%TO.N,Net-(A1-A5)*%
X42874800Y-59837200D02*
X42874800Y-66161100D01*
X15240000Y-22860000D02*
X15240000Y-23885100D01*
X14204300Y-34704100D02*
X18666100Y-39165900D01*
X44450000Y-68580000D02*
X44450000Y-67454900D01*
X44168600Y-67454900D02*
X44450000Y-67454900D01*
X22203500Y-39165900D02*
X42874800Y-59837200D01*
X42874800Y-66161100D02*
X44168600Y-67454900D01*
X14204300Y-24920800D02*
X14204300Y-34704100D01*
X14530000Y-14260000D02*
X21030000Y-14260000D01*
X18666100Y-39165900D02*
X22203500Y-39165900D01*
X15240000Y-23885100D02*
X14204300Y-24920800D01*
%TO.N,Net-(J2-Pin_1)*%
X3810000Y-41910000D02*
X10160000Y-41910000D01*
%TO.N,Net-(R10-Pad2)*%
X13970000Y-10160000D02*
X13970000Y-8180000D01*
X9600000Y-3810000D02*
X3100000Y-3810000D01*
X13970000Y-8180000D02*
X9600000Y-3810000D01*
%TD*%
M02*
